<svg width="15" height="15" fill="none" xmlns="http://www.w3.org/2000/svg"><g clip-path="url(#clip0)" fill="#838281"><path d="M14.985 4.41c-.035-.797-.164-1.345-.348-1.82a3.661 3.661 0 00-.868-1.33 3.692 3.692 0 00-1.327-.864c-.478-.185-1.023-.314-1.82-.35C9.82.01 9.564 0 7.528 0 5.49 0 5.236.009 4.436.044c-.797.035-1.345.164-1.82.349a3.66 3.66 0 00-1.33.867c-.38.375-.676.83-.864 1.327-.185.478-.314 1.023-.349 1.82C.035 5.21.026 5.465.026 7.501c0 2.037.01 2.292.044 3.092.035.797.164 1.345.35 1.82.19.504.485.955.866 1.33.375.38.83.677 1.328.864.477.185 1.022.314 1.82.349.8.035 1.054.044 3.091.044s2.291-.009 3.091-.044c.797-.035 1.345-.164 1.82-.349a3.836 3.836 0 002.195-2.194c.184-.478.313-1.023.348-1.82.036-.8.045-1.055.045-3.092 0-2.036-.003-2.291-.039-3.091zm-1.35 6.124c-.033.733-.156 1.128-.258 1.392a2.488 2.488 0 01-1.425 1.424c-.263.103-.662.226-1.391.258-.792.035-1.029.044-3.03.044-2.002 0-2.242-.009-3.03-.044-.733-.032-1.128-.155-1.392-.258a2.308 2.308 0 01-.861-.56 2.332 2.332 0 01-.56-.86c-.103-.265-.226-.663-.258-1.393-.035-.79-.044-1.028-.044-3.03 0-2.001.009-2.241.044-3.03.032-.732.155-1.128.258-1.391.12-.326.31-.622.563-.862.243-.25.536-.44.861-.56.264-.102.662-.225 1.392-.257.791-.036 1.028-.044 3.03-.044 2.004 0 2.241.008 3.03.044.732.032 1.128.155 1.392.257.325.12.62.311.86.56.25.243.44.536.56.862.103.263.226.662.259 1.391.035.792.043 1.029.043 3.03 0 2.002-.008 2.236-.043 3.027z"/><path d="M7.528 3.648a3.854 3.854 0 000 7.707 3.854 3.854 0 000-7.707zm0 6.353a2.5 2.5 0 110-5 2.5 2.5 0 010 5zm4.905-6.505a.9.9 0 11-1.8 0 .9.9 0 011.8 0z"/></g><defs><clipPath id="clip0"><path fill="#fff" d="M0 0h15v15H0z"/></clipPath></defs></svg>