<svg width="15" height="15" fill="none" xmlns="http://www.w3.org/2000/svg"><g clip-path="url(#clip0)" fill="#838281"><path d="M14.996 15H15V9.497c0-2.691-.58-4.764-3.726-4.764-1.512 0-2.527.83-2.941 1.617h-.044V4.985H5.306v10.014h3.106V10.04c0-1.305.247-2.568 1.864-2.568 1.593 0 1.617 1.49 1.617 2.652V15h3.103zM.248 4.986h3.11V15H.248V4.986zM1.801 0C.807 0 0 .807 0 1.801 0 2.796.807 3.62 1.801 3.62c.995 0 1.802-.823 1.802-1.818A1.804 1.804 0 001.8 0z"/></g><defs><clipPath id="clip0"><path fill="#fff" d="M0 0h15v15H0z"/></clipPath></defs></svg>