<svg viewBox="0 0 94 64" xmlns="http://www.w3.org/2000/svg" xmlns:xlink="http://www.w3.org/1999/xlink"><style>:root&gt;svg{display:none}:root&gt;svg:target{display:block}</style><svg viewBox="0 0 94 64" id="add-photo" xmlns="http://www.w3.org/2000/svg"><rect width="94" height="64" rx="3"/><path d="M38 24v-3h2v3h3v2h-3v3h-2v-3h-3v-2h3zm3 6v-3h3v-3h7l1.83 2H56c1.1 0 2 .9 2 2v12c0 1.1-.9 2-2 2H40c-1.1 0-2-.9-2-2V30h3zm7 9c2.76 0 5-2.24 5-5s-2.24-5-5-5-5 2.24-5 5 2.24 5 5 5zm-3.2-5c0 1.77 1.43 3.2 3.2 3.2 1.77 0 3.2-1.43 3.2-3.2 0-1.77-1.43-3.2-3.2-3.2-1.77 0-3.2 1.43-3.2 3.2z"/></svg><svg viewBox="0 0 17 16" id="arrow-left" xmlns="http://www.w3.org/2000/svg"><path d="M16.012 7H3.842l5.59-5.59L8.012 0l-8 8 8 8 1.41-1.41L3.842 9h12.17V7z"/></svg><svg viewBox="0 0 17 16" id="arrow-right" xmlns="http://www.w3.org/2000/svg"><path d="M.012 7h12.17l-5.59-5.59L8.012 0l8 8-8 8-1.41-1.41L12.182 9H.012V7z"/></svg><svg viewBox="0 0 23 23" id="breadcrumb" xmlns="http://www.w3.org/2000/svg"><circle cx="11.5" cy="11.5" r="11"/><circle cx="11.5" cy="11.5" r="3.5"/></svg><svg viewBox="0 0 23 23" id="breadcrumb-completed" xmlns="http://www.w3.org/2000/svg"><path d="M22.694 2.405a1.046 1.046 0 00-1.48 0L11.5 12.12 8.058 8.678a1.046 1.046 0 10-1.48 1.479l4.182 4.182a1.045 1.045 0 001.48 0L22.693 3.884a1.045 1.045 0 000-1.479z"/><path d="M22.77 9.203a1.044 1.044 0 00-1.61-.658 1.045 1.045 0 00-.44 1.076 9.41 9.41 0 11-4.626-6.325 1.048 1.048 0 101.025-1.83 11.5 11.5 0 105.65 7.737z"/></svg><svg viewBox="0 0 12 10" id="check" xmlns="http://www.w3.org/2000/svg"><path d="M3.517 7.413L1.247 5.08 0 6.363 2.995 9.44l.003-.003.547.562L12 1.308 10.728 0l-7.21 7.413z"/></svg><svg viewBox="0 0 15 15" id="facebook" xmlns="http://www.w3.org/2000/svg"><g clip-path="url(#gclip0)"><path d="M14.172 0H.827A.828.828 0 000 .828v13.345c0 .457.37.827.828.827h13.344c.457 0 .828-.37.828-.828V.827A.828.828 0 0014.172 0z"/><path d="M10.356 15V9.2h1.956l.293-2.271h-2.249V5.483c0-.656.183-1.103 1.123-1.103h1.192V2.355a15.84 15.84 0 00-1.747-.09c-1.728 0-2.911 1.055-2.911 2.993v1.67H6.064V9.2h1.949V15h2.343z"/></g><defs><clipPath id="gclip0"><path d="M0 0h15v15H0z"/></clipPath></defs></svg><svg viewBox="0 0 21 11" id="gold-key" xmlns="http://www.w3.org/2000/svg"><path d="M11.069 3.75A5.242 5.242 0 006.125.25 5.254 5.254 0 00.875 5.5a5.254 5.254 0 005.25 5.25 5.242 5.242 0 004.944-3.5h3.806v3.5h3.5v-3.5h1.75v-3.5h-9.056zm-4.944 3.5c-.963 0-1.75-.787-1.75-1.75s.787-1.75 1.75-1.75 1.75.787 1.75 1.75-.787 1.75-1.75 1.75z"/></svg><svg viewBox="0 0 16 16" id="info-icon" xmlns="http://www.w3.org/2000/svg"><path d="M8 .5C3.86.5.5 3.86.5 8c0 4.14 3.36 7.5 7.5 7.5 4.14 0 7.5-3.36 7.5-7.5C15.5 3.86 12.14.5 8 .5zm.75 11.25h-1.5v-4.5h1.5v4.5zm0-6h-1.5v-1.5h1.5v1.5z" fill-opacity=".56"/></svg><svg viewBox="0 0 15 15" id="instagram" xmlns="http://www.w3.org/2000/svg"><g clip-path="url(#jclip0)"><path d="M14.985 4.41c-.035-.797-.164-1.345-.348-1.82a3.661 3.661 0 00-.868-1.33 3.692 3.692 0 00-1.327-.864c-.478-.185-1.023-.314-1.82-.35C9.82.01 9.564 0 7.528 0 5.49 0 5.236.009 4.436.044c-.797.035-1.345.164-1.82.349a3.66 3.66 0 00-1.33.867c-.38.375-.676.83-.864 1.327-.185.478-.314 1.023-.349 1.82C.035 5.21.026 5.465.026 7.501c0 2.037.01 2.292.044 3.092.035.797.164 1.345.35 1.82.19.504.485.955.866 1.33.375.38.83.677 1.328.864.477.185 1.022.314 1.82.349.8.035 1.054.044 3.091.044s2.291-.009 3.091-.044c.797-.035 1.345-.164 1.82-.349a3.836 3.836 0 002.195-2.194c.184-.478.313-1.023.348-1.82.036-.8.045-1.055.045-3.092 0-2.036-.003-2.291-.039-3.091zm-1.35 6.124c-.033.733-.156 1.128-.258 1.392a2.488 2.488 0 01-1.425 1.424c-.263.103-.662.226-1.391.258-.792.035-1.029.044-3.03.044-2.002 0-2.242-.009-3.03-.044-.733-.032-1.128-.155-1.392-.258a2.308 2.308 0 01-.861-.56 2.332 2.332 0 01-.56-.86c-.103-.265-.226-.663-.258-1.393-.035-.79-.044-1.028-.044-3.03 0-2.001.009-2.241.044-3.03.032-.732.155-1.128.258-1.391.12-.326.31-.622.563-.862.243-.25.536-.44.861-.56.264-.102.662-.225 1.392-.257.791-.036 1.028-.044 3.03-.044 2.004 0 2.241.008 3.03.044.732.032 1.128.155 1.392.257.325.12.62.311.86.56.25.243.44.536.56.862.103.263.226.662.259 1.391.035.792.043 1.029.043 3.03 0 2.002-.008 2.236-.043 3.027z"/><path d="M7.528 3.648a3.854 3.854 0 000 7.707 3.854 3.854 0 000-7.707zm0 6.353a2.5 2.5 0 110-5 2.5 2.5 0 010 5zm4.905-6.505a.9.9 0 11-1.8 0 .9.9 0 011.8 0z"/></g><defs><clipPath id="jclip0"><path d="M0 0h15v15H0z"/></clipPath></defs></svg><svg viewBox="0 0 15 15" id="linkedin" xmlns="http://www.w3.org/2000/svg"><g clip-path="url(#kclip0)"><path d="M14.996 15H15V9.497c0-2.691-.58-4.764-3.726-4.764-1.512 0-2.527.83-2.941 1.617h-.044V4.985H5.306v10.014h3.106V10.04c0-1.305.247-2.568 1.864-2.568 1.593 0 1.617 1.49 1.617 2.652V15h3.103zM.248 4.986h3.11V15H.248V4.986zM1.801 0C.807 0 0 .807 0 1.801 0 2.796.807 3.62 1.801 3.62c.995 0 1.802-.823 1.802-1.818A1.804 1.804 0 001.8 0z"/></g><defs><clipPath id="kclip0"><path d="M0 0h15v15H0z"/></clipPath></defs></svg><svg viewBox="0 0 10 16" id="select-arrows" xmlns="http://www.w3.org/2000/svg"><path d="M5 0l4.33 4.5H.67L5 0zm0 16l4.33-4.5H.67L5 16z"/></svg><svg viewBox="0 0 15 15" id="twitter" xmlns="http://www.w3.org/2000/svg"><g clip-path="url(#mclip0)"><path d="M15 2.85a6.411 6.411 0 01-1.772.485 3.058 3.058 0 001.353-1.7 6.145 6.145 0 01-1.95.744 3.074 3.074 0 00-5.32 2.103c0 .244.021.478.072.701a8.704 8.704 0 01-6.339-3.216 3.08 3.08 0 00.945 4.11A3.037 3.037 0 01.6 5.698v.034a3.09 3.09 0 002.464 3.021 3.07 3.07 0 01-.807.102c-.196 0-.395-.012-.582-.053a3.104 3.104 0 002.874 2.142 6.18 6.18 0 01-3.813 1.312c-.252 0-.494-.011-.736-.042a8.657 8.657 0 004.718 1.38c5.658 0 8.752-4.688 8.752-8.75 0-.137-.005-.268-.011-.398A6.133 6.133 0 0015 2.849z"/></g><defs><clipPath id="mclip0"><path d="M0 0h15v15H0z"/></clipPath></defs></svg><svg viewBox="0 0 15 15" id="youtube" xmlns="http://www.w3.org/2000/svg"><g clip-path="url(#nclip0)"><path d="M14.69 3.9a1.88 1.88 0 00-1.321-1.323c-1.174-.321-5.87-.321-5.87-.321s-4.694 0-5.868.309A1.913 1.913 0 00.309 3.899C0 5.073 0 7.507 0 7.507s0 2.446.309 3.608a1.88 1.88 0 001.322 1.322c1.186.321 5.869.321 5.869.321s4.695 0 5.869-.309a1.88 1.88 0 001.322-1.322C15 9.953 15 7.52 15 7.52s.012-2.446-.31-3.62z"/><path d="M6.005 9.756l3.904-2.25-3.904-2.248v4.498z"/></g><defs><clipPath id="nclip0"><path d="M0 0h15v15H0z"/></clipPath></defs></svg></svg>