<svg width="15" height="15" fill="none" xmlns="http://www.w3.org/2000/svg"><g clip-path="url(#clip0)"><path d="M14.69 3.9a1.88 1.88 0 00-1.321-1.323c-1.174-.321-5.87-.321-5.87-.321s-4.694 0-5.868.309A1.913 1.913 0 00.309 3.899C0 5.073 0 7.507 0 7.507s0 2.446.309 3.608a1.88 1.88 0 001.322 1.322c1.186.321 5.869.321 5.869.321s4.695 0 5.869-.309a1.88 1.88 0 001.322-1.322C15 9.953 15 7.52 15 7.52s.012-2.446-.31-3.62z" fill="#838281"/><path d="M6.005 9.756l3.904-2.25-3.904-2.248v4.498z" fill="#fff"/></g><defs><clipPath id="clip0"><path fill="#fff" d="M0 0h15v15H0z"/></clipPath></defs></svg>