<svg width="25" height="26" fill="none" xmlns="http://www.w3.org/2000/svg"><path d="M18.75 8.833h-1.042V6.75A5.21 5.21 0 0012.5 1.542 5.21 5.21 0 007.292 6.75v2.083H6.25a2.09 2.09 0 00-2.083 2.084v10.416a2.09 2.09 0 002.083 2.084h12.5a2.09 2.09 0 002.083-2.084V10.917a2.09 2.09 0 00-2.083-2.084zm-6.25 9.375a2.09 2.09 0 01-2.084-2.083 2.09 2.09 0 012.084-2.083 2.09 2.09 0 012.083 2.083 2.09 2.09 0 01-2.083 2.083zm3.229-9.375H9.271V6.75A3.232 3.232 0 0112.5 3.52a3.232 3.232 0 013.229 3.23v2.083z" fill="#2D46F7"/></svg>