<svg width="15" height="15" fill="none" xmlns="http://www.w3.org/2000/svg"><g clip-path="url(#clip0)"><path d="M14.172 0H.827A.828.828 0 000 .828v13.345c0 .457.37.827.828.827h13.344c.457 0 .828-.37.828-.828V.827A.828.828 0 0014.172 0z" fill="#838281"/><path d="M10.356 15V9.2h1.956l.293-2.271h-2.249V5.483c0-.656.183-1.103 1.123-1.103h1.192V2.355a15.84 15.84 0 00-1.747-.09c-1.728 0-2.911 1.055-2.911 2.993v1.67H6.064V9.2h1.949V15h2.343z" fill="#fff"/></g><defs><clipPath id="clip0"><path fill="#fff" d="M0 0h15v15H0z"/></clipPath></defs></svg>