<svg width="21" height="15" fill="none" xmlns="http://www.w3.org/2000/svg"><path d="M12.115 3.331l-1.13 1.131 2.1 2.1H4.846v1.616h8.239l-2.1 2.1 1.13 1.13 4.039-4.038-4.039-4.039zm7.27 9.693h-6.462v1.615h6.462A1.62 1.62 0 0021 13.024V1.716A1.62 1.62 0 0019.385.101h-6.462v1.615h6.462v11.308z" fill="#928B8B"/><path d="M12.923 1.756h6.462V12.88h-6.462v1.798h6.462c1.292 0 1.615-1.077 1.615-1.616V1.756C21 .14 19.923-.103 19.385.032h-6.462v1.724z" fill="#fff"/><path d="M8.077 1.755H1.615v11.308h6.462v1.615H1.615C.323 14.678 0 13.602 0 13.063V1.755C0 .14 1.077.005 1.615.14h6.462v1.615z" fill="#928B8B"/></svg>