<svg width="27" height="27" fill="none" xmlns="http://www.w3.org/2000/svg"><circle r="13.5" transform="matrix(-1 0 0 1 13.5 13.5)" fill="#FE4A59"/><path d="M9.627 12.443c-.717-1.33-1.422-1.193-1.97-.875-.633.422-.87.858-.437 1.97.993 2.44 2.519 5.348 4.158 7.224h5.91c2.077-1.539 3.748-8.858.875-9.194-.263 0-.685.042-.875.219 0-.876-.764-1.1-1.094-1.095-.38.006-.657.219-.876.657 0-.876-.714-1.095-1.094-1.095-.42 0-.905.261-1.095.657V6.314A1.31 1.31 0 0011.816 5a1.31 1.31 0 00-1.313 1.314v7.88l-.876-1.75z" fill="#fff"/></svg>